<?xml version="1.0" encoding="UTF-8" standalone="no"?>
<svg
   xmlns:dc="http://purl.org/dc/elements/1.1/"
   xmlns:cc="http://creativecommons.org/ns#"
   xmlns:rdf="http://www.w3.org/1999/02/22-rdf-syntax-ns#"
   xmlns:svg="http://www.w3.org/2000/svg"
   xmlns="http://www.w3.org/2000/svg"
   xmlns:sodipodi="http://sodipodi.sourceforge.net/DTD/sodipodi-0.dtd"
   xmlns:inkscape="http://www.inkscape.org/namespaces/inkscape"
   id="svg8"
   version="1.1"
   viewBox="0 0 6.3499999 6.3500002"
   height="24"
   width="24"
   sodipodi:docname="cheese.svg"
   inkscape:version="0.92.4 5da689c313, 2019-01-14">
  <sodipodi:namedview
     pagecolor="#ffffff"
     bordercolor="#666666"
     borderopacity="1"
     objecttolerance="10"
     gridtolerance="10"
     guidetolerance="10"
     inkscape:pageopacity="0"
     inkscape:pageshadow="2"
     inkscape:window-width="1920"
     inkscape:window-height="1057"
     id="namedview20"
     showgrid="false"
     inkscape:zoom="35.75"
     inkscape:cx="8.4739521"
     inkscape:cy="10.73629"
     inkscape:window-x="0"
     inkscape:window-y="0"
     inkscape:window-maximized="0"
     inkscape:current-layer="layer1" />
  <defs
     id="defs2" />
  <metadata
     id="metadata5">
    <rdf:RDF>
      <cc:Work
         rdf:about="">
        <dc:format>image/svg+xml</dc:format>
        <dc:type
           rdf:resource="http://purl.org/dc/dcmitype/StillImage" />
        <dc:title />
      </cc:Work>
    </rdf:RDF>
  </metadata>
  <g
     transform="translate(0,-290.64998)"
     id="layer1">
    <path
       style="color:#000000;font-style:normal;font-variant:normal;font-weight:normal;font-stretch:normal;font-size:medium;line-height:normal;font-family:sans-serif;font-variant-ligatures:normal;font-variant-position:normal;font-variant-caps:normal;font-variant-numeric:normal;font-variant-alternates:normal;font-feature-settings:normal;text-indent:0;text-align:start;text-decoration:none;text-decoration-line:none;text-decoration-style:solid;text-decoration-color:#000000;letter-spacing:normal;word-spacing:normal;text-transform:none;writing-mode:lr-tb;direction:ltr;text-orientation:mixed;dominant-baseline:auto;baseline-shift:baseline;text-anchor:start;white-space:normal;shape-padding:0;clip-rule:nonzero;display:inline;overflow:visible;visibility:visible;opacity:1;isolation:auto;mix-blend-mode:normal;color-interpolation:sRGB;color-interpolation-filters:linearRGB;solid-color:#000000;solid-opacity:1;vector-effect:none;fill:#000000;fill-opacity:1;fill-rule:nonzero;stroke:none;stroke-width:0.99999994px;stroke-linecap:butt;stroke-linejoin:miter;stroke-miterlimit:4;stroke-dasharray:none;stroke-dashoffset:0;stroke-opacity:1;color-rendering:auto;image-rendering:auto;shape-rendering:auto;text-rendering:auto;enable-background:accumulate"
       d="M 15.871094 4.4980469 L 2.5019531 11.701172 L 2.5019531 19.498047 L 2.9960938 19.498047 L 22.5 19.498047 L 22.5 11 C 22.5 11 22.497646 10.403085 22.226562 9.5898438 C 21.95548 8.7766028 21.410487 7.7034793 20.351562 6.6445312 C 19.292637 5.585621 18.219495 5.0484493 17.40625 4.7773438 C 16.593004 4.5063516 15.996094 4.4980469 15.996094 4.4980469 L 15.871094 4.4980469 z M 16.091797 5.5234375 C 16.156158 5.5243824 16.463743 5.5159161 17.089844 5.7226562 C 17.776598 5.9516956 18.701503 6.4124511 19.642578 7.3535156 C 20.583654 8.294618 21.046473 9.221463 21.275391 9.9082031 C 21.504309 10.594981 21.503906 11 21.503906 11 L 21.503906 11.501953 L 17.34375 11.501953 C 17.310521 11.446861 17.284144 11.385559 17.244141 11.339844 C 17.097359 11.172033 16.922103 11.062043 16.734375 10.978516 C 16.358917 10.811461 15.932508 10.75 15.501953 10.75 C 15.071398 10.75 14.644988 10.811838 14.269531 10.978516 C 14.081802 11.062043 13.898734 11.172033 13.751953 11.339844 C 13.711929 11.385603 13.68674 11.446809 13.654297 11.501953 L 4.9785156 11.501953 L 16.091797 5.5234375 z M 15.998047 6.9453125 C 15.42059 6.9453125 14.945312 7.4244791 14.945312 8.0019531 C 14.945312 8.5793893 15.42059 9.0546875 15.998047 9.0546875 C 16.575504 9.0546875 17.054688 8.5793893 17.054688 8.0019531 C 17.054688 7.4244791 16.575504 6.9453125 15.998047 6.9453125 z M 15.998047 7.6503906 C 16.196079 7.6503906 16.349609 7.8042838 16.349609 8.0019531 C 16.349609 8.2000004 16.196075 8.3496094 15.998047 8.3496094 C 15.800015 8.3496094 15.650391 8.2000004 15.650391 8.0019531 C 15.650391 7.8039059 15.800015 7.6503906 15.998047 7.6503906 z M 15.501953 11.753906 C 15.821399 11.753906 16.141082 11.811382 16.328125 11.894531 C 16.421646 11.936106 16.472954 11.984253 16.490234 12.003906 L 16.498047 11.998047 C 16.498047 12.372976 16.373472 12.591638 16.195312 12.75 C 16.017153 12.908362 15.765841 13.001953 15.501953 13.001953 C 15.238067 13.001953 14.978941 12.908362 14.800781 12.75 C 14.622622 12.591638 14.498047 12.373052 14.498047 11.998047 L 14.505859 12.003906 C 14.523132 11.985009 14.582261 11.936106 14.675781 11.894531 C 14.862823 11.811382 15.182508 11.753906 15.501953 11.753906 z M 3.4980469 12.5 L 13.607422 12.5 C 13.710879 12.866614 13.881253 13.26902 14.136719 13.496094 C 14.521059 13.837763 15.015841 13.998047 15.501953 13.998047 C 15.988065 13.998047 16.475034 13.837839 16.859375 13.496094 C 17.115068 13.268944 17.312637 12.867143 17.416016 12.5 L 21.503906 12.5 L 21.503906 18.5 L 3.4980469 18.5 L 3.4980469 12.5 z M 7.5 13.503906 C 6.401353 13.503906 5.5 14.405273 5.5 15.503906 C 5.5 16.602577 6.401353 17.496094 7.5 17.496094 C 8.598647 17.496094 9.5 16.602577 9.5 15.503906 C 9.5 14.405273 8.598647 13.503906 7.5 13.503906 z M 7.5 14.5 C 8.0582071 14.5 8.4960937 14.945708 8.4960938 15.503906 C 8.4960938 16.062142 8.0582071 16.5 7.5 16.5 C 6.9417929 16.5 6.5039063 16.062142 6.5039062 15.503906 C 6.5039062 14.945708 6.9417929 14.5 7.5 14.5 z M 18.011719 16.060547 C 17.441919 16.060547 16.974609 16.529846 16.974609 17.099609 C 16.974609 17.669411 17.441919 18.136719 18.011719 18.136719 C 18.581518 18.136719 19.054687 17.669411 19.054688 17.099609 C 19.054688 16.529846 18.581518 16.060547 18.011719 16.060547 z M 18.011719 16.751953 C 18.207124 16.751953 18.359375 16.904208 18.359375 17.099609 C 18.359375 17.295011 18.20712 17.441406 18.011719 17.441406 C 17.816313 17.441406 17.669922 17.295389 17.669922 17.099609 C 17.669922 16.904208 17.816317 16.751953 18.011719 16.751953 z "
       transform="matrix(0.26458334,0,0,0.26458334,0,290.64998)"
       id="path12" />
  </g>
</svg>
